<?xml version="1.0" encoding="UTF-8"?>
<!DOCTYPE svg PUBLIC "-//W3C//DTD SVG 1.1//EN" "http://www.w3.org/Graphics/SVG/1.1/DTD/svg11.dtd">
<!-- Creator: CorelDRAW 2021 (64-Bit) -->
<svg xmlns="http://www.w3.org/2000/svg" xml:space="preserve" width="20.5608in" height="9.76435in" version="1.1" style="shape-rendering:geometricPrecision; text-rendering:geometricPrecision; image-rendering:optimizeQuality; fill-rule:evenodd; clip-rule:evenodd"
viewBox="0 0 59882.76 28438.37"
 xmlns:xlink="http://www.w3.org/1999/xlink"
 xmlns:xodm="http://www.corel.com/coreldraw/odm/2003">
 <defs>
  <style type="text/css">
   <![CDATA[
    .fil1 {fill:white;fill-rule:nonzero}
    .fil0 {fill:url(#id0)}
   ]]>
  </style>
  <linearGradient id="id0" gradientUnits="userSpaceOnUse" x1="25303.74" y1="12822.07" x2="39901.1" y2="5011.27">
   <stop offset="0" style="stop-opacity:1; stop-color:#5343FD"/>
   <stop offset="1" style="stop-opacity:1; stop-color:#3FD7FF"/>
  </linearGradient>
 </defs>
 <g id="Layer_x0020_1">
  <metadata id="CorelCorpID_0Corel-Layer"/>
  <g id="_2122343947264">
   <path class="fil0" d="M25176.81 2178.49l2178.5 0 5493.61 0c3770.3,0 6857.21,3086.91 6857.21,6857.21 0,2555.06 -1433.76,4897.4 -3695.68,6079.09 -199.72,104.34 -404.99,199.52 -613.89,284.02 -3.76,1.53 -7.54,3.04 -11.31,4.55 -928.96,372.46 -1861.31,508.01 -2858.33,489.66l-5.45 -0.1 -9775.86 0c-359.86,0 -709.44,-111.11 -1033.31,-260.59 -21.97,-10.15 -43.73,-20.8 -65.31,-31.76 -112.47,-57.17 -228.69,-123.73 -329.62,-199.64 -130.72,-98.31 -249.5,-202.15 -365.46,-317.46 -497.96,-495.25 -775.3,-1186.25 -775.3,-1887.04 0,-593.97 250.6,-1335.72 678.26,-1758.39 106.72,-105.47 213.72,-234.97 332.42,-325.12 1139.91,-865.76 2279.87,-626.6 3373.59,-237.93 -35.74,-511.51 -146.46,-1284.13 23.43,-1915.14 360.46,-1339.07 1625.98,-2143.14 2989.55,-2278.27 1160.13,-114.97 2370.18,276.95 3180.61,1190.3 482.6,543.92 684.92,1292.16 615.92,2009.21 -58.13,604.04 -312.65,1205.84 -866.93,1508.29l-604.59 329.91 1377.83 1779.02 441.54 -248.55c755.36,-425.2 1364.2,-1214.22 1665.01,-2020.36 615.52,-1649.53 236.76,-3639.29 -933.46,-4952.94l-4.92 -5.54 -5.05 -5.38c-906.67,-969.81 -2090.3,-1581.84 -3357.53,-1795.94 -373.91,-56.85 -733.54,-84.78 -1079.7,-85.37 -215.25,1.96 -431.3,15.17 -647.29,39.79l0 -7.84c-798.93,81.82 -1521.39,318.67 -2178.5,688l0 36.05c-308.72,162.71 -601.98,350.93 -876.23,563.46 -328.03,267.21 -638.01,571.04 -931.76,907.75 -430.99,528.6 -759.76,1127.69 -979.5,1771.03 -967.94,87.74 -1715.43,384.76 -2519.65,995.58 -202.13,153.5 -366.83,333.31 -546.13,510.5 -844.47,834.57 -1325.41,2128.58 -1325.41,3307.85 0,1280.77 508.44,2527.53 1417.64,3431.7 185.76,184.75 382.83,356.39 592.22,513.87 203.77,153.23 424.88,285.22 652,400.64 46.05,23.4 92.49,46.01 139.39,67.65 615.44,284.06 1265.13,461.13 1946.25,461.13l9755.92 0c1274.1,22.35 2508.62,-170.6 3694.41,-646.02 5.86,-2.35 11.72,-4.71 17.57,-7.09 274.4,-110.98 543.36,-235.61 805.69,-372.67 2980.98,-1557.37 4865.44,-4644 4865.44,-8009.95 0,-4972.73 -4062.98,-9035.7 -9035.71,-9035.7l-7672.12 0 0 2178.49z"/>
   <g>
    <path class="fil1" d="M-0 22099.18l0 6221.38 2330.91 0c2029.07,0 3295.15,-1274.47 3295.15,-3110.69 0,-1836.22 -1266.08,-3110.69 -3295.15,-3110.69l-2330.91 0zm4167.15 3110.69c0,1140.31 -654,1794.31 -1836.23,1794.31l-872 0 0 -3588.61 872 0c1182.23,0 1836.23,654 1836.23,1794.3zm1760.76 -2699.83c0,444.38 360.54,788.14 838.46,788.14 477.92,0 838.46,-343.76 838.46,-788.14 0,-444.38 -360.54,-788.16 -838.46,-788.16 -477.92,0 -838.46,343.77 -838.46,788.16zm134.16 1249.3l0 4561.22 1408.61 0 0 -4561.22 -1408.61 0zm5374.52 -1769.15l0 2330.93c-301.84,-436.01 -788.14,-679.16 -1349.92,-679.16 -1282.84,0 -2213.53,1048.08 -2213.53,2397.99 0,1349.92 930.69,2397.99 2213.53,2397.99 561.77,0 1048.08,-243.16 1349.92,-679.16l0 561.77 1408.61 0 0 -6330.38 -1408.61 0zm-8.38 4049.76c0,679.14 -444.38,1182.23 -1106.76,1182.23 -662.39,0 -1106.77,-503.09 -1106.77,-1182.23 0,-679.16 444.38,-1182.23 1106.77,-1182.23 662.38,0 1106.76,503.08 1106.76,1182.23zm5382.91 -2280.61l0 561.77c-301.84,-436.01 -788.14,-679.16 -1349.92,-679.16 -1282.84,0 -2213.52,1048.08 -2213.52,2397.99 0,1349.92 930.68,2397.99 2213.52,2397.99 561.77,0 1048.08,-243.16 1349.92,-679.16l0 561.77 1408.61 0 0 -4561.22 -1408.61 0zm-8.38 2280.61c0,679.14 -444.38,1182.23 -1106.76,1182.23 -662.39,0 -1106.77,-503.09 -1106.77,-1182.23 0,-679.16 444.38,-1182.23 1106.77,-1182.23 662.38,0 1106.76,503.08 1106.76,1182.23zm1819.47 0c-25.16,1349.92 1056.45,2423.15 2448.3,2397.99 897.14,0 1651.76,-410.84 2079.38,-1081.61l-1157.08 -637.23c-201.22,301.85 -519.84,486.31 -922.3,486.31 -662.39,0 -1106.76,-486.31 -1106.76,-1165.46 0,-679.16 444.37,-1165.46 1106.76,-1165.46 402.46,0 721.08,184.46 922.3,486.3l1157.08 -637.22c-427.62,-670.77 -1182.23,-1081.61 -2079.38,-1081.61 -1391.85,-25.16 -2473.45,1048.08 -2448.3,2397.99zm8032.44 1014.54c-192.85,92.22 -402.46,142.54 -637.22,142.54 -419.23,0 -628.85,-218 -628.85,-662.38l0 -1551.15 1366.69 0 0 -1224.15 -1366.69 0 0 -1182.23 -1408.61 0 0 1182.23 -913.92 0 0 1224.15 913.92 0 0 1559.53c0,1249.3 654,1894.92 1802.69,1894.92 436,0 888.77,-100.62 1157.08,-268.3l-285.08 -1115.15zm419.22 -4544.45c0,444.38 360.54,788.14 838.47,788.14 477.92,0 838.46,-343.76 838.46,-788.14 0,-444.38 -360.54,-788.16 -838.46,-788.16 -477.93,0 -838.47,343.77 -838.47,788.16zm134.16 1249.3l0 4561.22 1408.61 0 0 -4561.22 -1408.61 0zm6615.45 4561.22l-1936.85 -2288.99 1844.61 -2272.23 -1609.84 0 -1526 1911.69 0 -3680.84 -1408.61 0 0 6330.38 1408.61 0 0 -1928.47 1601.46 1928.47 1626.61 0z"/>
    <path class="fil1" d="M37261.14 22157.88l-687.54 0 0 6103.97 679.16 0 0 -4854.67 2188.38 3638.91 578.54 0 2188.38 -3638.91 0 4854.67 679.16 0 0 -6103.97 -679.16 0 -2473.45 4125.21 -2473.45 -4125.21zm10816.11 4167.13c8.38,-142.54 16.78,-276.68 16.78,-402.46 0,-1282.84 -947.46,-2179.99 -2238.69,-2179.99 -1299.61,0 -2247.07,1014.54 -2247.07,2322.53 0,1299.6 989.39,2314.14 2347.69,2314.14 846.84,0 1584.69,-368.92 1978.77,-930.68l-528.23 -352.16c-301.85,427.62 -838.46,687.54 -1450.54,687.54 -905.54,0 -1567.92,-586.92 -1676.92,-1458.92l3798.21 0zm-3798.21 -545c125.78,-872 737.84,-1442.15 1576.3,-1442.15 461.16,0 830.08,134.16 1123.54,402.47 293.46,259.92 444.38,612.07 461.16,1039.68l-3160.99 0zm8032.44 -3731.15l0 2615.99c-301.84,-595.3 -922.3,-922.3 -1668.53,-922.3 -1249.3,0 -2171.61,1022.92 -2171.61,2322.53 0,1299.6 922.31,2314.14 2171.61,2314.14 746.23,0 1366.69,-327 1668.53,-922.3l0 804.92 679.16 0 0 -6212.98 -679.16 0zm8.38 4016.22c0,1081.6 -695.92,1710.46 -1584.68,1710.46 -947.46,0 -1601.46,-754.62 -1601.46,-1710.46 0,-964.22 654,-1718.84 1601.46,-1718.84 888.76,0 1584.68,637.22 1584.68,1718.84zm1526 -3538.29c0,268.3 209.62,477.92 486.3,477.92 276.7,0 494.7,-209.62 494.7,-477.92 0,-268.31 -218,-477.93 -494.7,-477.93 -276.68,0 -486.3,209.62 -486.3,477.93zm830.08 1333.14l-679.14 0 0 4401.91 679.14 0 0 -4401.91zm4527.67 0l0 804.92c-301.84,-595.3 -922.3,-922.3 -1668.52,-922.3 -1249.31,0 -2171.61,1022.92 -2171.61,2322.53 0,1299.6 922.3,2314.14 2171.61,2314.14 746.22,0 1366.68,-327 1668.52,-922.3l0 804.92 679.16 0 0 -4401.91 -679.16 0zm8.39 2205.15c0,1081.6 -695.92,1710.46 -1584.69,1710.46 -947.46,0 -1601.46,-754.62 -1601.46,-1710.46 0,-964.22 654,-1718.84 1601.46,-1718.84 888.77,0 1584.69,637.22 1584.69,1718.84z"/>
   </g>
  </g>
 </g>
</svg>
