<?xml version="1.0" encoding="UTF-8"?>
<!DOCTYPE svg PUBLIC "-//W3C//DTD SVG 1.1//EN" "http://www.w3.org/Graphics/SVG/1.1/DTD/svg11.dtd">
<!-- Creator: CorelDRAW 2021 (64-Bit) -->
<svg xmlns="http://www.w3.org/2000/svg" xml:space="preserve" width="19.4046in" height="2.72445in" version="1.1" style="shape-rendering:geometricPrecision; text-rendering:geometricPrecision; image-rendering:optimizeQuality; fill-rule:evenodd; clip-rule:evenodd"
viewBox="0 0 9269.51 1301.46"
 xmlns:xlink="http://www.w3.org/1999/xlink"
 xmlns:xodm="http://www.corel.com/coreldraw/odm/2003">
 <defs>
  <style type="text/css">
   <![CDATA[
    .fil1 {fill:black;fill-rule:nonzero}
    .fil2 {fill:#666666;fill-rule:nonzero}
    .fil0 {fill:url(#id0)}
   ]]>
  </style>
  <linearGradient id="id0" gradientUnits="userSpaceOnUse" x1="526.08" y1="923.33" x2="1577.25" y2="360.86">
   <stop offset="0" style="stop-opacity:1; stop-color:#5343FD"/>
   <stop offset="1" style="stop-opacity:1; stop-color:#3FD7FF"/>
  </linearGradient>
 </defs>
 <g id="Layer_x0020_1">
  <metadata id="CorelCorpID_0Corel-Layer"/>
  <g id="_2122145633488">
   <path class="fil0" d="M516.94 156.87l156.87 0 395.6 0c271.5,0 493.79,222.29 493.79,493.79 0,183.99 -103.25,352.66 -266.13,437.76 -14.38,7.52 -29.16,14.37 -44.21,20.45 -0.27,0.11 -0.54,0.22 -0.81,0.33 -66.89,26.82 -134.03,36.58 -205.83,35.26l-0.39 -0.01 -703.97 0c-25.91,0 -51.09,-8 -74.41,-18.77 -1.58,-0.73 -3.15,-1.5 -4.7,-2.29 -8.1,-4.12 -16.47,-8.91 -23.74,-14.38 -9.41,-7.08 -17.97,-14.56 -26.32,-22.86 -35.86,-35.66 -55.83,-85.42 -55.83,-135.89 0,-42.77 18.05,-96.19 48.84,-126.62 7.69,-7.59 15.39,-16.92 23.94,-23.41 82.09,-62.35 164.18,-45.12 242.94,-17.13 -2.57,-36.84 -10.55,-92.47 1.69,-137.91 25.96,-96.43 117.09,-154.33 215.28,-164.06 83.54,-8.28 170.68,19.94 229.04,85.71 34.75,39.17 49.32,93.05 44.35,144.69 -4.19,43.5 -22.51,86.83 -62.43,108.61l-43.54 23.76 99.22 128.11 31.8 -17.9c54.39,-30.62 98.24,-87.44 119.9,-145.49 44.32,-118.78 17.05,-262.07 -67.22,-356.67l-0.36 -0.4 -0.36 -0.39c-65.29,-69.84 -150.52,-113.91 -241.78,-129.33 -26.92,-4.09 -52.82,-6.1 -77.75,-6.15 -15.5,0.14 -31.06,1.09 -46.61,2.86l0 -0.56c-57.53,5.89 -109.56,22.95 -156.87,49.54l0 2.6c-22.23,11.72 -43.35,25.27 -63.1,40.57 -23.62,19.24 -45.94,41.12 -67.1,65.37 -31.04,38.07 -54.71,81.21 -70.54,127.53 -69.7,6.32 -123.53,27.71 -181.44,71.69 -14.55,11.05 -26.41,24 -39.33,36.76 -60.81,60.1 -95.44,153.28 -95.44,238.2 0,92.23 36.61,182.01 102.08,247.12 13.38,13.3 27.57,25.66 42.65,37 14.67,11.03 30.6,20.54 46.95,28.85 3.32,1.69 6.66,3.31 10.04,4.87 44.32,20.45 91.1,33.21 140.15,33.21l702.53 0c91.75,1.61 180.65,-12.28 266.04,-46.52 0.42,-0.17 0.84,-0.34 1.26,-0.51 19.76,-7.99 39.13,-16.97 58.02,-26.84 214.66,-112.15 350.36,-334.42 350.36,-576.8 0,-358.09 -292.58,-650.67 -650.67,-650.67l-552.47 0 0 156.87z"/>
   <g>
    <path class="fil1" d="M2073.06 291.01l0 747.66 280.12 0c243.85,0 396,-153.16 396,-373.83 0,-220.67 -152.15,-373.83 -396,-373.83l-280.12 0zm500.79 373.83c0,137.04 -78.59,215.63 -220.67,215.63l-104.79 0 0 -431.26 104.79 0c142.08,0 220.67,78.59 220.67,215.63zm211.6 -324.46c0,53.4 43.33,94.72 100.76,94.72 57.43,0 100.76,-41.31 100.76,-94.72 0,-53.4 -43.33,-94.72 -100.76,-94.72 -57.43,0 -100.76,41.31 -100.76,94.72zm16.12 150.14l0 548.15 169.28 0 0 -548.15 -169.28 0zm645.89 -212.61l0 280.12c-36.27,-52.4 -94.72,-81.62 -162.23,-81.62 -154.17,0 -266.01,125.95 -266.01,288.18 0,162.23 111.85,288.18 266.01,288.18 67.51,0 125.95,-29.22 162.23,-81.62l0 67.51 169.28 0 0 -760.76 -169.28 0zm-1.01 486.68c0,81.62 -53.4,142.08 -133.01,142.08 -79.6,0 -133,-60.46 -133,-142.08 0,-81.62 53.4,-142.08 133,-142.08 79.6,0 133.01,60.46 133.01,142.08zm646.89 -274.07l0 67.51c-36.27,-52.4 -94.72,-81.62 -162.23,-81.62 -154.17,0 -266.01,125.95 -266.01,288.18 0,162.23 111.85,288.18 266.01,288.18 67.51,0 125.95,-29.22 162.23,-81.62l0 67.51 169.28 0 0 -548.15 -169.28 0zm-1.01 274.07c0,81.62 -53.4,142.08 -133,142.08 -79.6,0 -133.01,-60.46 -133.01,-142.08 0,-81.62 53.4,-142.08 133.01,-142.08 79.6,0 133,60.46 133,142.08zm218.66 0c-3.02,162.23 126.96,291.2 294.23,288.18 107.81,0 198.5,-49.37 249.89,-129.98l-139.05 -76.58c-24.18,36.27 -62.47,58.44 -110.84,58.44 -79.6,0 -133.01,-58.44 -133.01,-140.06 0,-81.62 53.4,-140.06 133.01,-140.06 48.37,0 86.66,22.17 110.84,58.44l139.05 -76.58c-51.39,-80.61 -142.08,-129.98 -249.89,-129.98 -167.27,-3.02 -297.25,125.95 -294.23,288.18zm965.3 121.92c-23.18,11.08 -48.37,17.13 -76.58,17.13 -50.38,0 -75.57,-26.2 -75.57,-79.6l0 -186.41 164.24 0 0 -147.11 -164.24 0 0 -142.08 -169.28 0 0 142.08 -109.83 0 0 147.11 109.83 0 0 187.42c0,150.14 78.59,227.72 216.64,227.72 52.4,0 106.81,-12.09 139.05,-32.24l-34.26 -134.01zm50.38 -546.13c0,53.4 43.33,94.72 100.76,94.72 57.43,0 100.76,-41.31 100.76,-94.72 0,-53.4 -43.33,-94.72 -100.76,-94.72 -57.43,0 -100.76,41.31 -100.76,94.72zm16.12 150.14l0 548.15 169.28 0 0 -548.15 -169.28 0zm795.01 548.15l-232.76 -275.08 221.68 -273.07 -193.46 0 -183.39 229.74 0 -442.35 -169.28 0 0 760.76 169.28 0 0 -231.75 192.46 231.75 195.48 0z"/>
    <path class="fil2" d="M6550.95 298.06l-82.63 0 0 733.55 81.62 0 0 -583.41 262.99 437.31 69.53 0 262.99 -437.31 0 583.41 81.62 0 0 -733.55 -81.62 0 -297.25 495.75 -297.25 -495.75zm1299.83 500.79c1.01,-17.13 2.01,-33.25 2.01,-48.37 0,-154.17 -113.86,-261.98 -269.04,-261.98 -156.18,0 -270.04,121.92 -270.04,279.11 0,156.18 118.9,278.1 282.13,278.1 101.77,0 190.44,-44.34 237.8,-111.85l-63.48 -42.32c-36.27,51.39 -100.76,82.62 -174.32,82.62 -108.82,0 -188.43,-70.53 -201.53,-175.33l456.45 0zm-456.45 -65.5c15.12,-104.79 88.67,-173.31 189.43,-173.31 55.42,0 99.76,16.12 135.02,48.37 35.26,31.24 53.4,73.56 55.42,124.94l-379.87 0zm965.3 -448.39l0 314.38c-36.27,-71.54 -110.84,-110.84 -200.52,-110.84 -150.14,0 -260.98,122.93 -260.98,279.11 0,156.18 110.84,278.1 260.98,278.1 89.68,0 164.24,-39.3 200.52,-110.84l0 96.73 81.62 0 0 -746.65 -81.62 0zm1.01 482.65c0,129.98 -83.63,205.56 -190.44,205.56 -113.86,0 -192.46,-90.69 -192.46,-205.56 0,-115.88 78.59,-206.56 192.46,-206.56 106.81,0 190.44,76.58 190.44,206.56zm183.39 -425.22c0,32.24 25.19,57.43 58.44,57.43 33.25,0 59.45,-25.19 59.45,-57.43 0,-32.24 -26.2,-57.43 -59.45,-57.43 -33.25,0 -58.44,25.19 -58.44,57.43zm99.75 160.21l-81.62 0 0 529 81.62 0 0 -529zm544.12 0l0 96.73c-36.27,-71.54 -110.84,-110.84 -200.52,-110.84 -150.14,0 -260.98,122.93 -260.98,279.11 0,156.18 110.84,278.1 260.98,278.1 89.68,0 164.24,-39.3 200.52,-110.84l0 96.73 81.62 0 0 -529 -81.62 0zm1.01 265.01c0,129.98 -83.63,205.56 -190.44,205.56 -113.86,0 -192.46,-90.69 -192.46,-205.56 0,-115.88 78.59,-206.56 192.46,-206.56 106.81,0 190.44,76.58 190.44,206.56z"/>
   </g>
  </g>
 </g>
</svg>
