<?xml version="1.0" encoding="UTF-8"?>
<!DOCTYPE svg PUBLIC "-//W3C//DTD SVG 1.1//EN" "http://www.w3.org/Graphics/SVG/1.1/DTD/svg11.dtd">
<!-- Creator: CorelDRAW 2021 (64-Bit) -->
<svg xmlns="http://www.w3.org/2000/svg" xml:space="preserve" width="20.5608in" height="9.76435in" version="1.1" style="shape-rendering:geometricPrecision; text-rendering:geometricPrecision; image-rendering:optimizeQuality; fill-rule:evenodd; clip-rule:evenodd"
viewBox="0 0 53683.7 25494.43"
 xmlns:xlink="http://www.w3.org/1999/xlink"
 xmlns:xodm="http://www.corel.com/coreldraw/odm/2003">
 <defs>
  <style type="text/css">
   <![CDATA[
    .fil1 {fill:black;fill-rule:nonzero}
    .fil2 {fill:#666666;fill-rule:nonzero}
    .fil0 {fill:url(#id0)}
   ]]>
  </style>
  <linearGradient id="id0" gradientUnits="userSpaceOnUse" x1="22684.3" y1="11494.73" x2="35770.54" y2="4492.5">
   <stop offset="0" style="stop-opacity:1; stop-color:#5343FD"/>
   <stop offset="1" style="stop-opacity:1; stop-color:#3FD7FF"/>
  </linearGradient>
 </defs>
 <g id="Layer_x0020_1">
  <metadata id="CorelCorpID_0Corel-Layer"/>
  <g id="_2124476400864">
   <path class="fil0" d="M22570.51 1952.97l1952.98 0 4924.92 0c3380,0 6147.35,2767.35 6147.35,6147.35 0,2290.56 -1285.34,4390.42 -3313.1,5449.78 -179.05,93.54 -363.07,178.86 -550.34,254.62 -3.37,1.37 -6.76,2.72 -10.14,4.08 -832.8,333.91 -1668.63,455.42 -2562.44,438.97l-4.88 -0.09 -8763.86 0c-322.61,0 -636,-99.61 -926.34,-233.61 -19.7,-9.1 -39.21,-18.65 -58.55,-28.47 -100.83,-51.25 -205.01,-110.93 -295.5,-178.97 -117.19,-88.14 -223.67,-181.23 -327.63,-284.6 -446.41,-443.98 -695.04,-1063.45 -695.04,-1691.69 0,-532.48 224.66,-1197.45 608.05,-1576.36 95.67,-94.55 191.6,-210.65 298.01,-291.46 1021.91,-776.14 2043.85,-561.74 3024.36,-213.3 -32.04,-458.55 -131.3,-1151.2 21,-1716.89 323.14,-1200.45 1457.66,-1921.28 2680.07,-2042.43 1040.03,-103.07 2124.82,248.28 2851.35,1067.08 432.64,487.61 614.02,1158.4 552.16,1801.22 -52.12,541.51 -280.29,1081.01 -777.18,1352.15l-542 295.76 1235.19 1594.86 395.83 -222.82c677.17,-381.18 1222.98,-1088.53 1492.65,-1811.21 551.8,-1478.78 212.25,-3262.55 -836.83,-4440.21l-4.41 -4.96 -4.52 -4.82c-812.81,-869.41 -1873.92,-1418.09 -3009.95,-1610.02 -335.2,-50.97 -657.6,-76.01 -967.93,-76.53 -192.97,1.76 -386.65,13.6 -580.28,35.67l0 -7.03c-716.23,73.35 -1363.89,285.69 -1952.98,616.77l0 32.32c-276.76,145.86 -539.66,314.6 -785.52,505.13 -294.07,239.55 -571.97,511.92 -835.3,813.78 -386.37,473.88 -681.11,1010.95 -878.1,1587.7 -867.74,78.66 -1537.85,344.93 -2258.82,892.52 -181.21,137.61 -328.86,298.8 -489.6,457.65 -757.05,748.18 -1188.21,1908.23 -1188.21,2965.42 0,1148.19 455.81,2265.88 1270.88,3076.45 166.53,165.62 343.2,319.49 530.91,460.67 182.68,137.36 380.89,255.69 584.51,359.16 41.28,20.98 82.91,41.25 124.96,60.65 551.73,254.65 1134.17,413.4 1744.78,413.4l8745.99 0c1142.21,20.03 2248.93,-152.94 3311.96,-579.14 5.25,-2.11 10.51,-4.22 15.75,-6.35 246,-99.49 487.11,-211.22 722.28,-334.09 2672.39,-1396.15 4361.77,-4163.25 4361.77,-7180.76 0,-4457.95 -3642.38,-8100.33 -8100.34,-8100.33l-6877.9 0 0 1952.97z"/>
   <g>
    <path class="fil1" d="M-0 19811.47l0 5577.34 2089.62 0c1819.02,0 2954.03,-1142.54 2954.03,-2788.67 0,-1646.13 -1135.01,-2788.67 -2954.03,-2788.67l-2089.62 0zm3735.76 2788.67c0,1022.27 -586.3,1608.56 -1646.14,1608.56l-781.73 0 0 -3217.12 781.73 0c1059.85,0 1646.14,586.3 1646.14,1608.55zm1578.49 -2420.35c0,398.38 323.22,706.56 751.66,706.56 428.45,0 751.66,-308.18 751.66,-706.56 0,-398.38 -323.22,-706.57 -751.66,-706.57 -428.45,0 -751.66,308.19 -751.66,706.57zm120.27 1119.97l0 4089.05 1262.79 0 0 -4089.05 -1262.79 0zm4818.15 -1586.01l0 2089.63c-270.6,-390.87 -706.56,-608.85 -1210.17,-608.85 -1150.04,0 -1984.39,939.58 -1984.39,2149.75 0,1210.17 834.35,2149.75 1984.39,2149.75 503.62,0 939.58,-217.99 1210.17,-608.85l0 503.62 1262.79 0 0 -5675.06 -1262.79 0zm-7.51 3630.53c0,608.84 -398.38,1059.85 -992.19,1059.85 -593.82,0 -992.2,-451.01 -992.2,-1059.85 0,-608.85 398.38,-1059.85 992.2,-1059.85 593.81,0 992.19,451 992.19,1059.85zm4825.67 -2044.52l0 503.62c-270.6,-390.87 -706.56,-608.85 -1210.17,-608.85 -1150.04,0 -1984.38,939.58 -1984.38,2149.75 0,1210.17 834.34,2149.75 1984.38,2149.75 503.62,0 939.58,-217.99 1210.17,-608.85l0 503.62 1262.79 0 0 -4089.05 -1262.79 0zm-7.51 2044.52c0,608.84 -398.38,1059.85 -992.19,1059.85 -593.82,0 -992.2,-451.01 -992.2,-1059.85 0,-608.85 398.38,-1059.85 992.2,-1059.85 593.81,0 992.19,451 992.19,1059.85zm1631.12 0c-22.55,1210.17 947.08,2172.31 2194.85,2149.75 804.27,0 1480.77,-368.31 1864.12,-969.65l-1037.3 -571.27c-180.39,270.61 -466.03,435.97 -826.82,435.97 -593.82,0 -992.19,-435.97 -992.19,-1044.81 0,-608.85 398.37,-1044.81 992.19,-1044.81 360.8,0 646.43,165.36 826.82,435.96l1037.3 -571.26c-383.35,-601.34 -1059.85,-969.65 -1864.12,-969.65 -1247.77,-22.55 -2217.4,939.58 -2194.85,2149.75zm7200.92 909.51c-172.89,82.68 -360.8,127.78 -571.26,127.78 -375.84,0 -563.75,-195.43 -563.75,-593.81l0 -1390.58 1225.21 0 0 -1097.43 -1225.21 0 0 -1059.85 -1262.79 0 0 1059.85 -819.31 0 0 1097.43 819.31 0 0 1398.09c0,1119.97 586.3,1698.75 1616.08,1698.75 390.86,0 796.77,-90.2 1037.3,-240.53l-255.57 -999.71zm375.83 -4074.01c0,398.38 323.22,706.56 751.67,706.56 428.45,0 751.66,-308.18 751.66,-706.56 0,-398.38 -323.22,-706.57 -751.66,-706.57 -428.46,0 -751.67,308.19 -751.67,706.57zm120.27 1119.97l0 4089.05 1262.79 0 0 -4089.05 -1262.79 0zm5930.62 4089.05l-1736.35 -2052.04 1653.66 -2037.01 -1443.19 0 -1368.02 1713.79 0 -3299.8 -1262.79 0 0 5675.06 1262.79 0 0 -1728.83 1435.67 1728.83 1458.23 0z"/>
    <path class="fil2" d="M33403.87 19864.1l-616.36 0 0 5472.09 608.85 0 0 -4352.12 1961.84 3262.21 518.65 0 1961.84 -3262.21 0 4352.12 608.85 0 0 -5472.09 -608.85 0 -2217.4 3698.17 -2217.4 -3698.17zm9696.43 3735.75c7.51,-127.78 15.04,-248.04 15.04,-360.8 0,-1150.04 -849.38,-1954.32 -2006.94,-1954.32 -1165.08,0 -2014.46,909.51 -2014.46,2082.1 0,1165.07 886.97,2074.58 2104.66,2074.58 759.18,0 1420.65,-330.73 1773.93,-834.34l-473.55 -315.7c-270.61,383.35 -751.66,616.36 -1300.38,616.36 -811.8,0 -1405.61,-526.16 -1503.32,-1307.89l3405.02 0zm-3405.02 -488.58c112.75,-781.73 661.46,-1292.86 1413.12,-1292.86 413.42,0 744.15,120.27 1007.23,360.81 263.08,233.01 398.38,548.7 413.42,932.05l-2833.77 0zm7200.92 -3344.9l0 2345.19c-270.6,-533.68 -826.82,-826.82 -1495.81,-826.82 -1119.97,0 -1946.81,917.03 -1946.81,2082.1 0,1165.07 826.83,2074.58 1946.81,2074.58 668.98,0 1225.21,-293.15 1495.81,-826.82l0 721.59 608.85 0 0 -5569.81 -608.85 0zm7.51 3600.47c0,969.64 -623.88,1533.39 -1420.63,1533.39 -849.38,0 -1435.67,-676.5 -1435.67,-1533.39 0,-864.41 586.3,-1540.9 1435.67,-1540.9 796.76,0 1420.63,571.26 1420.63,1540.9zm1368.02 -3172.01c0,240.53 187.92,428.45 435.96,428.45 248.05,0 443.48,-187.92 443.48,-428.45 0,-240.54 -195.43,-428.46 -443.48,-428.46 -248.04,0 -435.96,187.92 -435.96,428.46zm744.15 1195.14l-608.84 0 0 3946.22 608.84 0 0 -3946.22zm4058.97 0l0 721.59c-270.6,-533.68 -826.82,-826.82 -1495.8,-826.82 -1119.98,0 -1946.81,917.03 -1946.81,2082.1 0,1165.07 826.82,2074.58 1946.81,2074.58 668.97,0 1225.2,-293.15 1495.8,-826.82l0 721.59 608.85 0 0 -3946.22 -608.85 0zm7.52 1976.87c0,969.64 -623.88,1533.39 -1420.65,1533.39 -849.38,0 -1435.67,-676.5 -1435.67,-1533.39 0,-864.41 586.3,-1540.9 1435.67,-1540.9 796.77,0 1420.65,571.26 1420.65,1540.9z"/>
   </g>
  </g>
 </g>
</svg>
