<?xml version="1.0" encoding="UTF-8"?>
<!DOCTYPE svg PUBLIC "-//W3C//DTD SVG 1.1//EN" "http://www.w3.org/Graphics/SVG/1.1/DTD/svg11.dtd">
<!-- Creator: CorelDRAW 2021 (64-Bit) -->
<svg xmlns="http://www.w3.org/2000/svg" xml:space="preserve" width="8.81923in" height="6.67286in" version="1.1" style="shape-rendering:geometricPrecision; text-rendering:geometricPrecision; image-rendering:optimizeQuality; fill-rule:evenodd; clip-rule:evenodd"
viewBox="0 0 1610.58 1218.61"
 xmlns:xlink="http://www.w3.org/1999/xlink"
 xmlns:xodm="http://www.corel.com/coreldraw/odm/2003">
 <defs>
  <style type="text/css">
   <![CDATA[
    .fil0 {fill:url(#id0)}
   ]]>
  </style>
  <linearGradient id="id0" gradientUnits="userSpaceOnUse" x1="492.59" y1="864.54" x2="1476.83" y2="337.89">
   <stop offset="0" style="stop-opacity:1; stop-color:#5343FD"/>
   <stop offset="1" style="stop-opacity:1; stop-color:#3FD7FF"/>
  </linearGradient>
 </defs>
 <g id="Layer_x0020_1">
  <metadata id="CorelCorpID_0Corel-Layer"/>
  <path class="fil0" d="M484.03 146.89l146.89 0 370.41 0c254.22,0 462.36,208.14 462.36,462.36 0,172.28 -96.67,330.21 -249.19,409.89 -13.47,7.04 -27.31,13.45 -41.39,19.15 -0.25,0.1 -0.51,0.2 -0.76,0.31 -62.64,25.11 -125.5,34.25 -192.73,33.02l-0.37 -0.01 -659.15 0c-24.26,0 -47.84,-7.49 -69.67,-17.57 -1.48,-0.68 -2.95,-1.4 -4.4,-2.14 -7.58,-3.86 -15.42,-8.34 -22.23,-13.46 -8.81,-6.63 -16.82,-13.63 -24.64,-21.4 -33.58,-33.39 -52.28,-79.98 -52.28,-127.24 0,-40.05 16.9,-90.06 45.73,-118.56 7.2,-7.11 14.41,-15.84 22.41,-21.92 76.86,-58.38 153.72,-42.25 227.47,-16.04 -2.41,-34.49 -9.88,-86.58 1.58,-129.13 24.3,-90.29 109.63,-144.5 201.57,-153.62 78.22,-7.75 159.81,18.67 214.46,80.26 32.54,36.67 46.18,87.13 41.53,135.47 -3.92,40.73 -21.08,81.3 -58.45,101.7l-40.76 22.24 92.9 119.95 29.77 -16.76c50.93,-28.67 91.98,-81.87 112.27,-136.23 41.5,-111.22 15.96,-245.38 -62.94,-333.96l-0.33 -0.37 -0.34 -0.36c-61.13,-65.39 -140.94,-106.66 -226.39,-121.09 -25.21,-3.83 -49.46,-5.72 -72.8,-5.76 -14.51,0.13 -29.08,1.02 -43.65,2.68l0 -0.53c-53.87,5.52 -102.58,21.49 -146.89,46.39l0 2.43c-20.82,10.97 -40.59,23.66 -59.08,37.99 -22.12,18.02 -43.02,38.5 -62.83,61.21 -29.06,35.64 -51.23,76.04 -66.04,119.41 -65.26,5.92 -115.67,25.94 -169.89,67.13 -13.63,10.35 -24.73,22.47 -36.82,34.42 -56.94,56.27 -89.37,143.52 -89.37,223.04 0,86.36 34.28,170.42 95.59,231.39 12.53,12.46 25.81,24.03 39.93,34.65 13.74,10.33 28.65,19.23 43.96,27.01 3.11,1.58 6.24,3.1 9.4,4.56 41.5,19.15 85.3,31.09 131.23,31.09l657.8 0c85.91,1.51 169.15,-11.5 249.1,-43.56 0.39,-0.16 0.79,-0.32 1.18,-0.48 18.5,-7.48 36.64,-15.89 54.32,-25.13 201,-105.01 328.06,-313.13 328.06,-540.08 0,-335.29 -273.95,-609.24 -609.24,-609.24l-517.3 0 0 146.89z"/>
 </g>
</svg>
